# xmcd
#
# Track frame offsets:
#	150
#	14890
#	23172
#	35907
#	51507
#	65350
#	80897
#	92667
#	113222
#	129360
#	143465
#	153410
#	174067
#	188067
#	202592
#	214837
#	232730
#	245195
#
# Disc length: 3424 seconds
#
# Revision: 1
# Processed by: cddbd v1.5.2PL0 Copyright (c) Steve Scherf et al.
# Submitted via: EasyCDDAExtractor 10.5.1.1
#
DISCID=f40d5e12
DTITLE=Various Artist - Great Gospel Feeling, Disc 1
DYEAR=1996
DGENRE=Gospel
TTITLE0=Christy Lane\n - One Day At A Time
TTITLE1=Nat King Cole\n - Every Time I Feel The Spirit
TTITLE2=Patsy Cline\n - Just A Closer Walk With Thee
TTITLE3=Andy Williams\n - Amazing Grace
TTITLE4=Jane Froman\n - I Believe
TTITLE5=George Beverly Shea\n - Abide With Me
TTITLE6=Dolly Parton\n - Wings Of A Dove
TTITLE7=Ray Price\n - What A Friend We Have In Jesus
TTITLE8=Glenn Campbell\n - O Happy Day
TTITLE9=Jo Stafford and Gordon MacRae\n - Whispering Hope
TTITLE10=Ray Stevens\n - Turn Your Radio On
TTITLE11=Barbara Mandrell\n - He Set My Life To Music
TTITLE12=Charlie Rich\n - Why Me, Lord
TTITLE13=Marty Robbins\n - Will The Circle Be Unbroken
TTITLE14=Evie\n - Born Again
TTITLE15=Al Green\n - In The Garden
TTITLE16=Lennon Sisters\n - Old Time Religion
TTITLE17=Jim Nabors\n - Rock Of Ages
EXTD=
EXTT0=
EXTT1=
EXTT2=
EXTT3=
EXTT4=
EXTT5=
EXTT6=
EXTT7=
EXTT8=
EXTT9=
EXTT10=
EXTT11=
EXTT12=
EXTT13=
EXTT14=
EXTT15=
EXTT16=
EXTT17=
PLAYORDER=
